<svg id="Layer_1" data-name="Layer 1" xmlns="http://www.w3.org/2000/svg" viewBox="0 0 512 512"><defs><style>.cls-1{fill:#d1e1e8;}.cls-2{fill:#141f38;}.cls-3{fill:#ff5f6e;}.cls-4{fill:#808a8c;}</style></defs><title>megaphone-filled</title><path class="cls-1" d="M334.77,229.83a396.86,396.86,0,0,1-22.33,131.67,19,19,0,0,1-30.62,7.95c-38.68-34.23-88.87-58.94-144-60.95V151c55.11-2,105.3-26.55,144-60.79a19,19,0,0,1,30.62,7.95A397,397,0,0,1,334.77,229.83Z"/><path class="cls-2" d="M294.52,380.87a25.72,25.72,0,0,1-17.05-6.5c-41.19-36.46-90.87-57.52-139.86-59.3l-6.33-.23V144.64l6.33-.23c49.12-1.79,98.79-22.79,139.86-59.14A25.54,25.54,0,0,1,318.63,96a403.16,403.16,0,0,1,22.71,133.88,403,403,0,0,1-22.71,133.85,25.5,25.5,0,0,1-24.11,17.19ZM144.41,302.28c49.95,3.39,100.06,25.35,141.76,62.26a12.41,12.41,0,0,0,20.07-5.21,390,390,0,0,0,22-129.5,390.14,390.14,0,0,0-22-129.53,12.41,12.41,0,0,0-20.07-5.21c-41.59,36.81-91.7,58.72-141.76,62.11Z"/><path class="cls-3" d="M72.21,151h65.64a0,0,0,0,1,0,0V308.51a0,0,0,0,1,0,0H72.21A65.64,65.64,0,0,1,6.56,242.87V216.61A65.64,65.64,0,0,1,72.21,151Z"/><path class="cls-2" d="M137.85,315.07H72.21A72.29,72.29,0,0,1,0,242.87V216.61a72.29,72.29,0,0,1,72.21-72.21h65.64a6.56,6.56,0,0,1,6.56,6.56V308.51A6.56,6.56,0,0,1,137.85,315.07ZM72.21,157.53a59.14,59.14,0,0,0-59.08,59.08v26.26a59.14,59.14,0,0,0,59.08,59.08h59.08V157.53Z"/><path class="cls-2" d="M463.68,367.59a6.57,6.57,0,0,1-5.24-10.5c26.46-35.28,40.44-77.73,40.44-122.77,0-48.48-16.82-95.23-47.37-131.63a6.56,6.56,0,1,1,10.05-8.44C494.09,133,512,182.75,512,234.31c0,47.91-14.89,93.08-43.06,130.65A6.55,6.55,0,0,1,463.68,367.59Z"/><path class="cls-2" d="M425.28,328.2a6.56,6.56,0,0,1-5.37-10.33,149.2,149.2,0,0,0-4.65-176,6.57,6.57,0,1,1,10.33-8.1,162.33,162.33,0,0,1,5.07,191.61A6.55,6.55,0,0,1,425.28,328.2Z"/><path class="cls-2" d="M386.55,288.82a6.56,6.56,0,0,1-5.62-9.95,92,92,0,0,0-2.51-98,6.57,6.57,0,0,1,10.9-7.33,105.11,105.11,0,0,1,2.86,112.07A6.56,6.56,0,0,1,386.55,288.82Z"/><path class="cls-4" d="M124.72,426.66h0A26.26,26.26,0,0,0,151,400.41l-13.13-91.9H85.33l13.13,91.9A26.26,26.26,0,0,0,124.72,426.66Z"/><path class="cls-2" d="M124.72,433.23A32.85,32.85,0,0,1,91.9,400.9l-14.14-99h65.78l14,98.46A32.86,32.86,0,0,1,124.72,433.23ZM92.9,315.07,105,400.41a19.69,19.69,0,0,0,39.38.43l-12.25-85.77Z"/></svg>